<?xml version="1.0" encoding="utf-8"?>
<!-- Generator: Adobe Illustrator 23.0.1, SVG Export Plug-In . SVG Version: 6.00 Build 0)  -->
<svg version="1.1" id="Layer_1" xmlns="http://www.w3.org/2000/svg" xmlns:xlink="http://www.w3.org/1999/xlink" x="0px" y="0px"
	 viewBox="0 0 256 256" style="enable-background:new 0 0 256 256;" xml:space="preserve">
<g>
	<g>
		<path d="M127.07,114.66v28.6c0,11.65-2.28,21.92-6.85,30.81c-4.57,8.89-11.08,15.75-19.53,20.61c-8.45,4.86-18.22,7.28-29.3,7.28
			c-11.22,0-21.1-2.28-29.62-6.85c-8.52-4.57-15.11-11.02-19.75-19.37c-4.64-8.34-6.96-18.02-6.96-29.03v-46.29
			c0-11.65,2.28-21.91,6.85-30.75c4.57-8.85,11.08-15.7,19.53-20.56c8.45-4.86,18.22-7.28,29.3-7.28c9.14,0,17.55,1.93,25.25,5.77
			c7.7,3.85,14.14,9.3,19.32,16.35c5.18,7.05,8.67,15.22,10.47,24.5H99.01c-1.22-4.53-3.27-8.43-6.15-11.71
			c-2.88-3.27-6.24-5.77-10.09-7.5c-3.85-1.73-7.86-2.59-12.03-2.59c-6.04,0-11.33,1.4-15.86,4.21s-8.06,6.76-10.58,11.87
			c-2.52,5.11-3.78,11.01-3.78,17.7v46.29c0,6.04,1.28,11.37,3.83,15.97c2.55,4.6,6.17,8.17,10.85,10.68
			c4.68,2.52,10.07,3.78,16.19,3.78c6.04,0,11.35-1.33,15.92-3.99c4.57-2.66,8.09-6.51,10.58-11.55c2.48-5.03,3.72-11.01,3.72-17.91
			v-5.29H72.68v-23.74H127.07z"/>
		<path d="M139.59,43.44h112.23v23.74H139.59V43.44z M183.29,56.28h24.82v144.06h-24.82V56.28z"/>
	</g>
</g>
</svg>
